<svg xmlns="http://www.w3.org/2000/svg" viewBox="0 0 24 24" id="profile"><g data-name="Layer 2"><path fill="#fff" d="M21.5,12A9.5,9.5,0,1,1,12,2.5,9.51224,9.51224,0,0,1,21.5,12Z"></path><circle cx="12" cy="10.5" r="4" fill="#8dd1ff"></circle><path fill="#3e96ed" d="M18.5,19.5v.1a10.002,10.002,0,0,1-13,0v-.1a6.5,6.5,0,0,1,13,0Z"></path><path fill="#0c5dad" d="M17.47949,20.12988a1,1,0,0,1-.99707-.9375,4.49245,4.49245,0,0,0-8.96484,0,1,1,0,0,1-1.9961-.125,6.49245,6.49245,0,0,1,12.957,0,.99984.99984,0,0,1-.93555,1.06055C17.52148,20.12891,17.501,20.12988,17.47949,20.12988Z"></path><path fill="#0c5dad" d="M12,15a4.5,4.5,0,1,1,4.5-4.5A4.50491,4.50491,0,0,1,12,15Zm0-7a2.5,2.5,0,1,0,2.5,2.5A2.50231,2.50231,0,0,0,12,8Z"></path><path fill="#0c5dad" d="M12,22A10,10,0,1,1,22,12,10.01177,10.01177,0,0,1,12,22ZM12,4a8,8,0,1,0,8,8A8.00917,8.00917,0,0,0,12,4Z"></path></g></svg>